<svg xmlns="http://www.w3.org/2000/svg" xmlns:xlink="http://www.w3.org/1999/xlink" width="1080" zoomAndPan="magnify" viewBox="0 0 810 1439.999935" height="1920" preserveAspectRatio="xMidYMid meet" version="1.0"><defs><clipPath id="e95636b95a"><path d="M 243 558 L 567 558 L 567 882 L 243 882 Z M 243 558 " clip-rule="nonzero"/></clipPath></defs><g clip-path="url(#e95636b95a)"><path fill="#ffffff" d="M 567 832.730469 C 567 859.921875 544.960938 881.960938 517.769531 881.960938 L 292.246094 881.960938 C 265.054688 881.960938 243.011719 859.921875 243.011719 832.730469 L 243.011719 607.207031 C 243.011719 580.015625 265.054688 557.972656 292.246094 557.972656 L 517.769531 557.972656 C 544.960938 557.972656 567 580.015625 567 607.207031 Z M 567 832.730469 " fill-opacity="1" fill-rule="nonzero"/></g><path fill="#000000" d="M 457.6875 745.140625 L 462.925781 704.519531 L 422.699219 704.519531 L 422.699219 678.582031 C 422.699219 666.820312 425.980469 658.804688 442.84375 658.804688 L 464.335938 658.792969 L 464.335938 622.460938 C 460.625 621.964844 447.867188 620.859375 432.996094 620.859375 C 401.980469 620.859375 380.757812 639.792969 380.757812 674.5625 L 380.757812 704.519531 L 345.675781 704.519531 L 345.675781 745.140625 L 380.757812 745.140625 L 380.757812 849.375 L 422.699219 849.375 L 422.699219 745.140625 Z M 457.6875 745.140625 " fill-opacity="1" fill-rule="nonzero"/></svg>