<svg xmlns="http://www.w3.org/2000/svg" xmlns:xlink="http://www.w3.org/1999/xlink" width="1080" zoomAndPan="magnify" viewBox="0 0 810 1439.999935" height="1920" preserveAspectRatio="xMidYMid meet" version="1.0"><defs><g/></defs><g fill="#ffffff" fill-opacity="1"><g transform="translate(134.858305, 754.124915)"><g><path d="M 22.171875 -25.171875 C 22.171875 -20.679688 21.1875 -17.125 19.21875 -14.5 C 17.25 -11.875 13.789062 -9.351562 8.84375 -6.9375 C 10.320312 -8.570312 11.363281 -10.492188 11.96875 -12.703125 C 12.570312 -14.910156 12.875 -18.160156 12.875 -22.453125 C 12.875 -23.179688 12.859375 -24.390625 12.828125 -26.078125 C 12.796875 -27.765625 12.78125 -29.097656 12.78125 -30.078125 C 12.257812 -30.171875 11.90625 -30.226562 11.71875 -30.25 C 11.539062 -30.269531 11.382812 -30.28125 11.25 -30.28125 C 9.519531 -30.28125 8.175781 -29.957031 7.21875 -29.3125 C 6.269531 -28.675781 5.632812 -27.671875 5.3125 -26.296875 C 4.75 -26.953125 4.34375 -27.664062 4.09375 -28.4375 C 3.851562 -29.207031 3.734375 -30.128906 3.734375 -31.203125 C 3.734375 -33.960938 4.425781 -36.128906 5.8125 -37.703125 C 7.207031 -39.273438 9.132812 -40.0625 11.59375 -40.0625 C 11.726562 -40.0625 11.925781 -40.039062 12.1875 -40 C 12.445312 -39.96875 12.644531 -39.953125 12.78125 -39.953125 C 12.78125 -40.179688 12.765625 -40.535156 12.734375 -41.015625 C 12.703125 -41.492188 12.6875 -41.847656 12.6875 -42.078125 C 12.6875 -45.253906 13.519531 -47.859375 15.1875 -49.890625 C 16.851562 -51.921875 20.015625 -54.050781 24.671875 -56.28125 C 23.753906 -55.03125 23.109375 -53.585938 22.734375 -51.953125 C 22.359375 -50.316406 22.171875 -47.957031 22.171875 -44.875 Z M 2.609375 -58.1875 C 3.648438 -61.789062 5.234375 -64.613281 7.359375 -66.65625 C 9.492188 -68.707031 11.90625 -69.734375 14.59375 -69.734375 C 15.9375 -69.734375 17.9375 -69.363281 20.59375 -68.625 C 23.25 -67.894531 25.3125 -67.53125 26.78125 -67.53125 C 27.570312 -67.53125 28.332031 -67.617188 29.0625 -67.796875 C 29.800781 -67.984375 30.648438 -68.304688 31.609375 -68.765625 C 30.097656 -65.453125 28.429688 -63.039062 26.609375 -61.53125 C 24.796875 -60.019531 22.644531 -59.265625 20.15625 -59.265625 C 18.96875 -59.265625 17.15625 -59.535156 14.71875 -60.078125 C 12.28125 -60.617188 10.390625 -60.890625 9.046875 -60.890625 C 7.398438 -60.890625 5.429688 -60.101562 3.140625 -58.53125 C 2.910156 -58.375 2.734375 -58.257812 2.609375 -58.1875 Z M 24.875 -14.109375 C 25.882812 -15.191406 26.601562 -16.425781 27.03125 -17.8125 C 27.457031 -19.207031 27.671875 -21.492188 27.671875 -24.671875 L 27.671875 -48.40625 C 27.671875 -52.113281 28.191406 -55.03125 29.234375 -57.15625 C 30.285156 -59.289062 32.039062 -61.472656 34.5 -63.703125 C 37.09375 -66.085938 39.664062 -67.910156 42.21875 -69.171875 C 44.769531 -70.429688 47.175781 -71.0625 49.4375 -71.0625 C 51.175781 -71.0625 52.757812 -70.75 54.1875 -70.125 C 55.613281 -69.507812 57.046875 -68.515625 58.484375 -67.140625 L 60.40625 -68.859375 L 61.28125 -67.921875 C 59.8125 -66.609375 58.425781 -65.171875 57.125 -63.609375 C 55.832031 -62.054688 54.269531 -59.875 52.4375 -57.0625 C 49.226562 -60.207031 46.914062 -62.238281 45.5 -63.15625 C 44.09375 -64.070312 42.816406 -64.53125 41.671875 -64.53125 C 39.910156 -64.53125 38.664062 -64 37.9375 -62.9375 C 37.21875 -61.875 36.859375 -60.015625 36.859375 -57.359375 L 36.859375 -30.921875 C 36.859375 -25.609375 35.945312 -21.722656 34.125 -19.265625 C 32.3125 -16.804688 29.226562 -15.085938 24.875 -14.109375 Z M 8.84375 3.09375 C 11.332031 -1.363281 15.492188 -5.039062 21.328125 -7.9375 C 27.160156 -10.832031 33.4375 -12.28125 40.15625 -12.28125 C 42.21875 -12.28125 44.265625 -12.132812 46.296875 -11.84375 C 48.328125 -11.550781 50.375 -11.09375 52.4375 -10.46875 L 52.4375 -34.109375 C 51.976562 -34.304688 51.625 -34.597656 51.375 -34.984375 C 51.132812 -35.378906 51.015625 -35.828125 51.015625 -36.328125 C 51.015625 -37.078125 51.226562 -37.703125 51.65625 -38.203125 C 52.082031 -38.710938 52.570312 -38.96875 53.125 -38.96875 C 53.8125 -38.96875 54.351562 -38.738281 54.75 -38.28125 C 55.144531 -37.820312 55.34375 -37.203125 55.34375 -36.421875 C 55.34375 -35.929688 55.234375 -35.519531 55.015625 -35.1875 C 54.804688 -34.863281 54.457031 -34.535156 53.96875 -34.203125 L 53.96875 -9.984375 L 57.890625 -8.25 L 59.671875 -10.265625 L 60.796875 -9.34375 C 59.191406 -7.34375 57.703125 -5.328125 56.328125 -3.296875 C 54.953125 -1.265625 53.65625 0.832031 52.4375 3 C 48.800781 1.226562 45.109375 -0.113281 41.359375 -1.03125 C 37.609375 -1.945312 33.878906 -2.40625 30.171875 -2.40625 C 26.535156 -2.40625 22.972656 -1.953125 19.484375 -1.046875 C 15.992188 -0.148438 12.445312 1.226562 8.84375 3.09375 Z M 8.84375 3.09375 "/></g></g></g><g fill="#ffffff" fill-opacity="1"><g transform="translate(197.766014, 754.124915)"><g><path d="M 25.953125 -9.234375 L 25.953125 -35.828125 C 25.097656 -36.253906 24.347656 -36.796875 23.703125 -37.453125 C 23.066406 -38.109375 22.441406 -38.976562 21.828125 -40.0625 C 20.253906 -39.300781 18.796875 -38.722656 17.453125 -38.328125 C 16.109375 -37.941406 14.894531 -37.75 13.8125 -37.75 C 12.832031 -37.75 11.847656 -37.910156 10.859375 -38.234375 C 9.878906 -38.566406 8.78125 -39.109375 7.5625 -39.859375 L 22.265625 -21.140625 L 20.9375 -20.15625 L 14.890625 -27.875 C 13.804688 -26.332031 13.019531 -24.832031 12.53125 -23.375 C 12.039062 -21.914062 11.796875 -20.363281 11.796875 -18.71875 C 11.796875 -15.613281 12.757812 -12.992188 14.6875 -10.859375 C 16.625 -8.734375 19.347656 -7.328125 22.859375 -6.640625 Z M 26.390625 -7.5625 L 16.703125 1.421875 C 12.546875 0.046875 9.28125 -1.972656 6.90625 -4.640625 C 4.53125 -7.316406 3.34375 -10.257812 3.34375 -13.46875 C 3.34375 -16.582031 4.265625 -19.519531 6.109375 -22.28125 C 7.960938 -25.050781 10.5625 -27.351562 13.90625 -29.1875 L 3.4375 -42.46875 L 3.640625 -42.46875 C 5.210938 -42.46875 6.875 -43.03125 8.625 -44.15625 C 10.375 -45.289062 12.203125 -46.972656 14.109375 -49.203125 C 14.859375 -46.515625 15.753906 -44.488281 16.796875 -43.125 C 17.847656 -41.769531 19.066406 -41.09375 20.453125 -41.09375 C 21.921875 -41.09375 23.484375 -41.753906 25.140625 -43.078125 C 26.796875 -44.398438 28.640625 -46.503906 30.671875 -49.390625 C 30.796875 -47.460938 31.375 -45.90625 32.40625 -44.71875 C 33.445312 -43.539062 34.753906 -42.953125 36.328125 -42.953125 C 36.617188 -42.953125 37.015625 -43.015625 37.515625 -43.140625 C 38.023438 -43.273438 38.5625 -43.457031 39.125 -43.6875 C 38.925781 -42.738281 38.488281 -41.847656 37.8125 -41.015625 C 37.144531 -40.179688 36.15625 -39.285156 34.84375 -38.328125 L 34.84375 -15.484375 C 34.84375 -12.734375 35.316406 -10.742188 36.265625 -9.515625 C 37.222656 -8.285156 38.75 -7.671875 40.84375 -7.671875 L 41.875 -7.671875 L 34.40625 1.625 C 32.207031 0.632812 30.476562 -0.5625 29.21875 -1.96875 C 27.957031 -3.375 27.015625 -5.238281 26.390625 -7.5625 Z M 26.390625 -7.5625 "/></g></g></g><g fill="#ffffff" fill-opacity="1"><g transform="translate(240.425305, 754.124915)"><g/></g></g><g fill="#ffffff" fill-opacity="1"><g transform="translate(263.376795, 754.124915)"><g><path d="M 27.375 -12.96875 C 28.320312 -13.882812 28.992188 -14.929688 29.390625 -16.109375 C 29.785156 -17.296875 29.984375 -19.378906 29.984375 -22.359375 L 29.984375 -56.671875 L 22.75 -52.828125 L 22.265625 -54.0625 C 28.785156 -57.53125 34.117188 -60.597656 38.265625 -63.265625 C 42.410156 -65.941406 45.921875 -68.539062 48.796875 -71.0625 C 49.453125 -69.070312 50.320312 -67.566406 51.40625 -66.546875 C 52.488281 -65.535156 53.769531 -65.03125 55.25 -65.03125 C 56.0625 -65.03125 56.835938 -65.191406 57.578125 -65.515625 C 58.316406 -65.835938 59.015625 -66.34375 59.671875 -67.03125 C 59.335938 -64.738281 58.441406 -62.789062 56.984375 -61.1875 C 55.523438 -59.582031 53.679688 -58.484375 51.453125 -57.890625 L 51.453125 -8.65625 C 53.222656 -9.34375 55.066406 -10.429688 56.984375 -11.921875 C 58.898438 -13.410156 60.941406 -15.332031 63.109375 -17.6875 C 60.128906 -10.976562 56.171875 -5.898438 51.234375 -2.453125 C 46.304688 0.984375 40.46875 2.703125 33.71875 2.703125 C 25.195312 2.703125 18.234375 -0.40625 12.828125 -6.625 C 7.421875 -12.851562 4.71875 -20.851562 4.71875 -30.625 C 4.71875 -38.8125 6.878906 -46.382812 11.203125 -53.34375 C 15.523438 -60.3125 21.390625 -65.613281 28.796875 -69.25 C 24.015625 -64.957031 20.453125 -60.140625 18.109375 -54.796875 C 15.765625 -49.460938 14.59375 -43.484375 14.59375 -36.859375 C 14.59375 -26.835938 16.835938 -19.257812 21.328125 -14.125 C 25.816406 -9 32.46875 -6.4375 41.28125 -6.4375 C 42.851562 -6.4375 44.351562 -6.578125 45.78125 -6.859375 C 47.207031 -7.140625 48.65625 -7.570312 50.125 -8.15625 L 50.125 -57.65625 C 49.96875 -57.625 49.804688 -57.597656 49.640625 -57.578125 C 49.472656 -57.554688 49.226562 -57.546875 48.90625 -57.546875 C 47.132812 -57.546875 45.609375 -58.050781 44.328125 -59.0625 C 43.054688 -60.082031 42.039062 -61.59375 41.28125 -63.59375 L 39.375 -62.421875 L 39.375 -29.296875 C 39.375 -24.578125 38.445312 -20.972656 36.59375 -18.484375 C 34.738281 -15.992188 31.664062 -14.15625 27.375 -12.96875 Z M 27.375 -12.96875 "/></g></g></g><g fill="#ffffff" fill-opacity="1"><g transform="translate(326.284505, 754.124915)"><g><path d="M 6.4375 -57.15625 L 4.421875 -55.875 L 3.734375 -57.0625 C 6.742188 -59.226562 8.789062 -60.773438 9.875 -61.703125 C 10.957031 -62.640625 11.757812 -63.484375 12.28125 -64.234375 C 12.96875 -62.566406 13.757812 -61.367188 14.65625 -60.640625 C 15.5625 -59.921875 16.722656 -59.5625 18.140625 -59.5625 C 18.265625 -59.5625 18.457031 -59.578125 18.71875 -59.609375 C 18.988281 -59.648438 19.1875 -59.671875 19.3125 -59.671875 C 18.789062 -57.929688 17.847656 -56.523438 16.484375 -55.453125 C 15.128906 -54.390625 13.632812 -53.859375 12 -53.859375 C 11.070312 -53.859375 10.132812 -54.132812 9.1875 -54.6875 C 8.238281 -55.25 7.320312 -56.070312 6.4375 -57.15625 Z M 15.578125 0.984375 C 12.628906 0.191406 10.554688 -1.394531 9.359375 -3.78125 C 8.160156 -6.175781 7.5625 -10.320312 7.5625 -16.21875 L 7.5625 -36.515625 C 6.75 -36.941406 6.03125 -37.410156 5.40625 -37.921875 C 4.78125 -38.429688 4.191406 -39.046875 3.640625 -39.765625 L 1.125 -38.234375 L 0.390625 -39.375 C 2.554688 -40.71875 4.65625 -42.179688 6.6875 -43.765625 C 8.71875 -45.359375 10.617188 -47.035156 12.390625 -48.796875 C 13.109375 -47.191406 14.015625 -45.957031 15.109375 -45.09375 C 16.210938 -44.226562 17.414062 -43.796875 18.71875 -43.796875 C 18.945312 -43.796875 19.25 -43.859375 19.625 -43.984375 C 20.007812 -44.117188 20.644531 -44.382812 21.53125 -44.78125 C 21.457031 -43.164062 21.003906 -41.757812 20.171875 -40.5625 C 19.335938 -39.375 18.085938 -38.335938 16.421875 -37.453125 L 16.421875 -16.609375 C 16.421875 -13.234375 16.941406 -10.957031 17.984375 -9.78125 C 19.035156 -8.601562 20.921875 -7.960938 23.640625 -7.859375 C 21.804688 -6.316406 20.207031 -4.800781 18.84375 -3.3125 C 17.488281 -1.820312 16.398438 -0.390625 15.578125 0.984375 Z M 15.578125 0.984375 "/></g></g></g><g fill="#ffffff" fill-opacity="1"><g transform="translate(351.251002, 754.124915)"><g><path d="M 4.8125 -2.5 C 5.175781 -3.914062 5.804688 -5.125 6.703125 -6.125 C 7.609375 -7.125 8.863281 -8 10.46875 -8.75 L 10.46875 -40.640625 L 9.578125 -40.640625 C 7.972656 -40.640625 6.585938 -40.507812 5.421875 -40.25 C 4.265625 -39.988281 3.289062 -39.597656 2.5 -39.078125 C 2.570312 -39.503906 2.640625 -40.0625 2.703125 -40.75 C 2.835938 -41.789062 2.90625 -42.460938 2.90625 -42.765625 C 2.90625 -43.179688 2.878906 -43.664062 2.828125 -44.21875 C 2.773438 -44.78125 2.6875 -45.671875 2.5625 -46.890625 C 3.4375 -46.492188 4.40625 -46.195312 5.46875 -46 C 6.539062 -45.800781 7.695312 -45.703125 8.9375 -45.703125 L 10.46875 -45.703125 L 10.46875 -47.53125 C 10.46875 -49.789062 10.210938 -51.582031 9.703125 -52.90625 C 9.191406 -54.238281 8.300781 -55.457031 7.03125 -56.5625 C 9.71875 -56.832031 12.253906 -57.582031 14.640625 -58.8125 C 17.035156 -60.039062 19.578125 -61.914062 22.265625 -64.4375 L 22.953125 -63.703125 C 21.609375 -62.222656 20.664062 -60.453125 20.125 -58.390625 C 19.582031 -56.328125 19.3125 -53.128906 19.3125 -48.796875 L 19.3125 -45.703125 L 20.84375 -45.703125 C 22.082031 -45.703125 23.234375 -45.800781 24.296875 -46 C 25.367188 -46.195312 26.328125 -46.492188 27.171875 -46.890625 C 27.140625 -46.753906 27.109375 -46.554688 27.078125 -46.296875 C 26.878906 -44.722656 26.78125 -43.609375 26.78125 -42.953125 C 26.78125 -42.367188 26.863281 -41.421875 27.03125 -40.109375 C 27.09375 -39.648438 27.140625 -39.304688 27.171875 -39.078125 C 26.359375 -39.597656 25.367188 -39.988281 24.203125 -40.25 C 23.035156 -40.507812 21.6875 -40.640625 20.15625 -40.640625 L 19.3125 -40.640625 L 19.3125 -10.859375 C 20.65625 -10.429688 21.832031 -9.820312 22.84375 -9.03125 C 23.863281 -8.25 24.800781 -7.222656 25.65625 -5.953125 L 28.15625 -7.765625 L 29 -6.4375 C 26.40625 -4.570312 24.191406 -2.816406 22.359375 -1.171875 C 20.523438 0.460938 19.3125 1.753906 18.71875 2.703125 C 17.875 0.992188 16.582031 -0.394531 14.84375 -1.46875 C 13.101562 -2.550781 11.269531 -3.09375 9.34375 -3.09375 C 8.71875 -3.09375 8.007812 -3.039062 7.21875 -2.9375 C 6.4375 -2.84375 5.632812 -2.695312 4.8125 -2.5 Z M 4.8125 -2.5 "/></g></g></g><g fill="#ffffff" fill-opacity="1"><g transform="translate(381.525337, 754.124915)"><g><path d="M 4.8125 -2.5 C 5.175781 -3.914062 5.804688 -5.125 6.703125 -6.125 C 7.609375 -7.125 8.863281 -8 10.46875 -8.75 L 10.46875 -40.640625 L 9.578125 -40.640625 C 7.972656 -40.640625 6.585938 -40.507812 5.421875 -40.25 C 4.265625 -39.988281 3.289062 -39.597656 2.5 -39.078125 C 2.570312 -39.503906 2.640625 -40.0625 2.703125 -40.75 C 2.835938 -41.789062 2.90625 -42.460938 2.90625 -42.765625 C 2.90625 -43.179688 2.878906 -43.664062 2.828125 -44.21875 C 2.773438 -44.78125 2.6875 -45.671875 2.5625 -46.890625 C 3.4375 -46.492188 4.40625 -46.195312 5.46875 -46 C 6.539062 -45.800781 7.695312 -45.703125 8.9375 -45.703125 L 10.46875 -45.703125 L 10.46875 -47.53125 C 10.46875 -49.789062 10.210938 -51.582031 9.703125 -52.90625 C 9.191406 -54.238281 8.300781 -55.457031 7.03125 -56.5625 C 9.71875 -56.832031 12.253906 -57.582031 14.640625 -58.8125 C 17.035156 -60.039062 19.578125 -61.914062 22.265625 -64.4375 L 22.953125 -63.703125 C 21.609375 -62.222656 20.664062 -60.453125 20.125 -58.390625 C 19.582031 -56.328125 19.3125 -53.128906 19.3125 -48.796875 L 19.3125 -45.703125 L 20.84375 -45.703125 C 22.082031 -45.703125 23.234375 -45.800781 24.296875 -46 C 25.367188 -46.195312 26.328125 -46.492188 27.171875 -46.890625 C 27.140625 -46.753906 27.109375 -46.554688 27.078125 -46.296875 C 26.878906 -44.722656 26.78125 -43.609375 26.78125 -42.953125 C 26.78125 -42.367188 26.863281 -41.421875 27.03125 -40.109375 C 27.09375 -39.648438 27.140625 -39.304688 27.171875 -39.078125 C 26.359375 -39.597656 25.367188 -39.988281 24.203125 -40.25 C 23.035156 -40.507812 21.6875 -40.640625 20.15625 -40.640625 L 19.3125 -40.640625 L 19.3125 -10.859375 C 20.65625 -10.429688 21.832031 -9.820312 22.84375 -9.03125 C 23.863281 -8.25 24.800781 -7.222656 25.65625 -5.953125 L 28.15625 -7.765625 L 29 -6.4375 C 26.40625 -4.570312 24.191406 -2.816406 22.359375 -1.171875 C 20.523438 0.460938 19.3125 1.753906 18.71875 2.703125 C 17.875 0.992188 16.582031 -0.394531 14.84375 -1.46875 C 13.101562 -2.550781 11.269531 -3.09375 9.34375 -3.09375 C 8.71875 -3.09375 8.007812 -3.039062 7.21875 -2.9375 C 6.4375 -2.84375 5.632812 -2.695312 4.8125 -2.5 Z M 4.8125 -2.5 "/></g></g></g><g fill="#ffffff" fill-opacity="1"><g transform="translate(411.799673, 754.124915)"><g><path d="M 25.953125 -9.234375 L 25.953125 -35.828125 C 25.097656 -36.253906 24.347656 -36.796875 23.703125 -37.453125 C 23.066406 -38.109375 22.441406 -38.976562 21.828125 -40.0625 C 20.253906 -39.300781 18.796875 -38.722656 17.453125 -38.328125 C 16.109375 -37.941406 14.894531 -37.75 13.8125 -37.75 C 12.832031 -37.75 11.847656 -37.910156 10.859375 -38.234375 C 9.878906 -38.566406 8.78125 -39.109375 7.5625 -39.859375 L 22.265625 -21.140625 L 20.9375 -20.15625 L 14.890625 -27.875 C 13.804688 -26.332031 13.019531 -24.832031 12.53125 -23.375 C 12.039062 -21.914062 11.796875 -20.363281 11.796875 -18.71875 C 11.796875 -15.613281 12.757812 -12.992188 14.6875 -10.859375 C 16.625 -8.734375 19.347656 -7.328125 22.859375 -6.640625 Z M 26.390625 -7.5625 L 16.703125 1.421875 C 12.546875 0.046875 9.28125 -1.972656 6.90625 -4.640625 C 4.53125 -7.316406 3.34375 -10.257812 3.34375 -13.46875 C 3.34375 -16.582031 4.265625 -19.519531 6.109375 -22.28125 C 7.960938 -25.050781 10.5625 -27.351562 13.90625 -29.1875 L 3.4375 -42.46875 L 3.640625 -42.46875 C 5.210938 -42.46875 6.875 -43.03125 8.625 -44.15625 C 10.375 -45.289062 12.203125 -46.972656 14.109375 -49.203125 C 14.859375 -46.515625 15.753906 -44.488281 16.796875 -43.125 C 17.847656 -41.769531 19.066406 -41.09375 20.453125 -41.09375 C 21.921875 -41.09375 23.484375 -41.753906 25.140625 -43.078125 C 26.796875 -44.398438 28.640625 -46.503906 30.671875 -49.390625 C 30.796875 -47.460938 31.375 -45.90625 32.40625 -44.71875 C 33.445312 -43.539062 34.753906 -42.953125 36.328125 -42.953125 C 36.617188 -42.953125 37.015625 -43.015625 37.515625 -43.140625 C 38.023438 -43.273438 38.5625 -43.457031 39.125 -43.6875 C 38.925781 -42.738281 38.488281 -41.847656 37.8125 -41.015625 C 37.144531 -40.179688 36.15625 -39.285156 34.84375 -38.328125 L 34.84375 -15.484375 C 34.84375 -12.734375 35.316406 -10.742188 36.265625 -9.515625 C 37.222656 -8.285156 38.75 -7.671875 40.84375 -7.671875 L 41.875 -7.671875 L 34.40625 1.625 C 32.207031 0.632812 30.476562 -0.5625 29.21875 -1.96875 C 27.957031 -3.375 27.015625 -5.238281 26.390625 -7.5625 Z M 26.390625 -7.5625 "/></g></g></g><g fill="#ffffff" fill-opacity="1"><g transform="translate(454.458963, 754.124915)"><g><path d="M 17.0625 -10.375 C 18.726562 -9.882812 20.175781 -9.210938 21.40625 -8.359375 C 22.632812 -7.503906 23.609375 -6.535156 24.328125 -5.453125 C 25.117188 -5.785156 25.976562 -6.082031 26.90625 -6.34375 C 27.84375 -6.601562 28.882812 -6.832031 30.03125 -7.03125 L 30.03125 -36.859375 L 24.328125 -42.859375 C 23.015625 -41.910156 21.734375 -41.125 20.484375 -40.5 C 19.242188 -39.875 18.101562 -39.460938 17.0625 -39.265625 Z M 3 -2.84375 C 3.164062 -4.125 3.648438 -5.269531 4.453125 -6.28125 C 5.253906 -7.300781 6.539062 -8.367188 8.3125 -9.484375 L 8.3125 -31.40625 C 8.3125 -33.925781 8.101562 -35.703125 7.6875 -36.734375 C 7.28125 -37.765625 6.585938 -38.707031 5.609375 -39.5625 C 6.097656 -39.53125 6.570312 -39.503906 7.03125 -39.484375 C 7.488281 -39.472656 7.976562 -39.46875 8.5 -39.46875 C 11.675781 -39.46875 14.40625 -39.816406 16.6875 -40.515625 C 18.96875 -41.222656 21.203125 -42.378906 23.390625 -43.984375 L 13.421875 -55.140625 C 11.679688 -57.109375 9.992188 -58.8125 8.359375 -60.25 C 6.722656 -61.695312 5.097656 -62.910156 3.484375 -63.890625 C 6.703125 -64.023438 9.441406 -64.492188 11.703125 -65.296875 C 13.960938 -66.097656 15.75 -67.253906 17.0625 -68.765625 L 17.0625 -67.328125 C 17.0625 -66.285156 17.328125 -65.253906 17.859375 -64.234375 C 18.398438 -63.222656 19.476562 -61.847656 21.09375 -60.109375 L 36.421875 -43.640625 C 36.484375 -43.578125 36.613281 -43.429688 36.8125 -43.203125 C 38.1875 -41.660156 39.628906 -40.707031 41.140625 -40.34375 C 40.347656 -39.425781 39.78125 -38.46875 39.4375 -37.46875 C 39.09375 -36.476562 38.921875 -35.257812 38.921875 -33.8125 L 38.921875 -12.78125 C 38.921875 -10.875 39.066406 -9.390625 39.359375 -8.328125 C 39.660156 -7.265625 40.140625 -6.191406 40.796875 -5.109375 C 40.660156 -5.140625 40.460938 -5.171875 40.203125 -5.203125 C 37.816406 -5.566406 36.144531 -5.75 35.1875 -5.75 C 31.15625 -5.75 27.566406 -5.125 24.421875 -3.875 C 21.273438 -2.632812 18.625 -0.800781 16.46875 1.625 C 14.664062 -0.207031 12.976562 -1.570312 11.40625 -2.46875 C 9.832031 -3.375 8.328125 -3.828125 6.890625 -3.828125 C 6.359375 -3.828125 5.78125 -3.742188 5.15625 -3.578125 C 4.539062 -3.421875 3.820312 -3.175781 3 -2.84375 Z M 3 -2.84375 "/></g></g></g><g fill="#ffffff" fill-opacity="1"><g transform="translate(500.361921, 754.124915)"><g><path d="M 19.703125 -42.859375 L 16.703125 -42.078125 L 16.703125 -19.40625 L 28.703125 -27.46875 Z M 2.703125 -2.40625 C 2.703125 -4.207031 3.132812 -5.742188 4 -7.015625 C 4.875 -8.296875 6.160156 -9.285156 7.859375 -9.984375 L 7.859375 -33.90625 C 7.859375 -35.75 7.628906 -37.335938 7.171875 -38.671875 C 6.710938 -40.015625 5.992188 -41.242188 5.015625 -42.359375 L 8.453125 -42.359375 C 12.117188 -42.359375 15.78125 -43.019531 19.4375 -44.34375 C 23.09375 -45.675781 25.96875 -47.375 28.0625 -49.4375 C 29.039062 -46.226562 30.382812 -43.132812 32.09375 -40.15625 C 33.800781 -37.175781 35.785156 -34.457031 38.046875 -32 L 16.703125 -17.5 L 16.703125 -10.90625 C 19.359375 -10.582031 21.773438 -10.039062 23.953125 -9.28125 C 26.140625 -8.53125 28.019531 -7.582031 29.59375 -6.4375 L 32.390625 -8.65625 L 33.328125 -7.46875 L 22.359375 2.21875 C 20.296875 0.414062 18.007812 -0.972656 15.5 -1.953125 C 13 -2.941406 10.453125 -3.4375 7.859375 -3.4375 C 6.941406 -3.4375 6.066406 -3.351562 5.234375 -3.1875 C 4.398438 -3.03125 3.554688 -2.769531 2.703125 -2.40625 Z M 2.703125 -2.40625 "/></g></g></g><g fill="#ffffff" fill-opacity="1"><g transform="translate(538.991175, 754.124915)"><g><path d="M 2.3125 -2.5 C 2.664062 -3.945312 3.3125 -5.1875 4.25 -6.21875 C 5.1875 -7.25 6.425781 -8.09375 7.96875 -8.75 L 7.96875 -54.15625 C 7.96875 -56.78125 7.710938 -58.722656 7.203125 -59.984375 C 6.691406 -61.242188 5.796875 -62.445312 4.515625 -63.59375 C 7.234375 -63.894531 9.796875 -64.648438 12.203125 -65.859375 C 14.617188 -67.066406 17.117188 -68.898438 19.703125 -71.359375 L 20.453125 -70.671875 C 19.109375 -69.171875 18.164062 -67.453125 17.625 -65.515625 C 17.082031 -63.578125 16.8125 -60.117188 16.8125 -55.140625 L 16.8125 -10.859375 C 18.25 -10.335938 19.46875 -9.679688 20.46875 -8.890625 C 21.46875 -8.109375 22.363281 -7.128906 23.15625 -5.953125 L 25.65625 -7.765625 L 26.484375 -6.4375 C 23.898438 -4.570312 21.691406 -2.816406 19.859375 -1.171875 C 18.023438 0.460938 16.8125 1.753906 16.21875 2.703125 C 15.363281 0.992188 14.0625 -0.394531 12.3125 -1.46875 C 10.5625 -2.550781 8.734375 -3.09375 6.828125 -3.09375 C 6.203125 -3.09375 5.492188 -3.039062 4.703125 -2.9375 C 3.921875 -2.84375 3.125 -2.695312 2.3125 -2.5 Z M 2.3125 -2.5 "/></g></g></g><g fill="#ffffff" fill-opacity="1"><g transform="translate(563.662803, 754.124915)"><g><path d="M 2.3125 -2.5 C 2.664062 -3.945312 3.3125 -5.1875 4.25 -6.21875 C 5.1875 -7.25 6.425781 -8.09375 7.96875 -8.75 L 7.96875 -54.15625 C 7.96875 -56.78125 7.710938 -58.722656 7.203125 -59.984375 C 6.691406 -61.242188 5.796875 -62.445312 4.515625 -63.59375 C 7.234375 -63.894531 9.796875 -64.648438 12.203125 -65.859375 C 14.617188 -67.066406 17.117188 -68.898438 19.703125 -71.359375 L 20.453125 -70.671875 C 19.109375 -69.171875 18.164062 -67.453125 17.625 -65.515625 C 17.082031 -63.578125 16.8125 -60.117188 16.8125 -55.140625 L 16.8125 -10.859375 C 18.25 -10.335938 19.46875 -9.679688 20.46875 -8.890625 C 21.46875 -8.109375 22.363281 -7.128906 23.15625 -5.953125 L 25.65625 -7.765625 L 26.484375 -6.4375 C 23.898438 -4.570312 21.691406 -2.816406 19.859375 -1.171875 C 18.023438 0.460938 16.8125 1.753906 16.21875 2.703125 C 15.363281 0.992188 14.0625 -0.394531 12.3125 -1.46875 C 10.5625 -2.550781 8.734375 -3.09375 6.828125 -3.09375 C 6.203125 -3.09375 5.492188 -3.039062 4.703125 -2.9375 C 3.921875 -2.84375 3.125 -2.695312 2.3125 -2.5 Z M 2.3125 -2.5 "/></g></g></g><g fill="#ffffff" fill-opacity="1"><g transform="translate(588.334432, 754.124915)"><g><path d="M 25.953125 -9.234375 L 25.953125 -35.828125 C 25.097656 -36.253906 24.347656 -36.796875 23.703125 -37.453125 C 23.066406 -38.109375 22.441406 -38.976562 21.828125 -40.0625 C 20.253906 -39.300781 18.796875 -38.722656 17.453125 -38.328125 C 16.109375 -37.941406 14.894531 -37.75 13.8125 -37.75 C 12.832031 -37.75 11.847656 -37.910156 10.859375 -38.234375 C 9.878906 -38.566406 8.78125 -39.109375 7.5625 -39.859375 L 22.265625 -21.140625 L 20.9375 -20.15625 L 14.890625 -27.875 C 13.804688 -26.332031 13.019531 -24.832031 12.53125 -23.375 C 12.039062 -21.914062 11.796875 -20.363281 11.796875 -18.71875 C 11.796875 -15.613281 12.757812 -12.992188 14.6875 -10.859375 C 16.625 -8.734375 19.347656 -7.328125 22.859375 -6.640625 Z M 26.390625 -7.5625 L 16.703125 1.421875 C 12.546875 0.046875 9.28125 -1.972656 6.90625 -4.640625 C 4.53125 -7.316406 3.34375 -10.257812 3.34375 -13.46875 C 3.34375 -16.582031 4.265625 -19.519531 6.109375 -22.28125 C 7.960938 -25.050781 10.5625 -27.351562 13.90625 -29.1875 L 3.4375 -42.46875 L 3.640625 -42.46875 C 5.210938 -42.46875 6.875 -43.03125 8.625 -44.15625 C 10.375 -45.289062 12.203125 -46.972656 14.109375 -49.203125 C 14.859375 -46.515625 15.753906 -44.488281 16.796875 -43.125 C 17.847656 -41.769531 19.066406 -41.09375 20.453125 -41.09375 C 21.921875 -41.09375 23.484375 -41.753906 25.140625 -43.078125 C 26.796875 -44.398438 28.640625 -46.503906 30.671875 -49.390625 C 30.796875 -47.460938 31.375 -45.90625 32.40625 -44.71875 C 33.445312 -43.539062 34.753906 -42.953125 36.328125 -42.953125 C 36.617188 -42.953125 37.015625 -43.015625 37.515625 -43.140625 C 38.023438 -43.273438 38.5625 -43.457031 39.125 -43.6875 C 38.925781 -42.738281 38.488281 -41.847656 37.8125 -41.015625 C 37.144531 -40.179688 36.15625 -39.285156 34.84375 -38.328125 L 34.84375 -15.484375 C 34.84375 -12.734375 35.316406 -10.742188 36.265625 -9.515625 C 37.222656 -8.285156 38.75 -7.671875 40.84375 -7.671875 L 41.875 -7.671875 L 34.40625 1.625 C 32.207031 0.632812 30.476562 -0.5625 29.21875 -1.96875 C 27.957031 -3.375 27.015625 -5.238281 26.390625 -7.5625 Z M 26.390625 -7.5625 "/></g></g></g></svg>